<svg xmlns="http://www.w3.org/2000/svg" fill="none" viewBox="0 0 260 200">
  <g fill-rule="evenodd" clip-path="url(#a)" clip-rule="evenodd">
    <path fill="url(#b)" d="M7.5-2.4h21c4.4 0 7.9 3.5 7.9 7.9v21c0 4.4-3.5 7.9-7.9 7.9h-21a7.8 7.8 0 0 1-7.9-7.9v-21c0-4.4 3.5-7.9 7.9-7.9m-7.4.5A9.8 9.8 0 0 1 7.5-5h21A10.5 10.5 0 0 1 39 5.5v21A10.5 10.5 0 0 1 28.5 37h-21A10.5 10.5 0 0 1-3 26.5v-21C-3 2.7-1.9 0 0-1.9zm7.4 55.5h21c4.4 0 7.9 3.5 7.9 7.9v21c0 4.4-3.5 7.9-7.9 7.9h-21a7.8 7.8 0 0 1-7.9-7.9v-21c0-4.4 3.5-7.9 7.9-7.9m-7.4.5c2-2 4.6-3.1 7.4-3.1h21A10.5 10.5 0 0 1 39 61.5v21A10.5 10.5 0 0 1 28.5 93h-21A10.5 10.5 0 0 1-3 82.5v-21c0-2.8 1.1-5.5 3-7.4zm28.4 55.5h-21a7.81 7.81 0 0 0-5.616 2.284A7.8 7.8 0 0 0-.4 117.5v21c0 4.4 3.5 7.9 7.9 7.9h21c4.4 0 7.9-3.5 7.9-7.9v-21c0-4.4-3.5-7.9-7.9-7.9m-28.4.5c-2 2-3.1 4.6-3.1 7.4v21A10.5 10.5 0 0 0 7.5 149h21A10.5 10.5 0 0 0 39 138.5v-21A10.5 10.5 0 0 0 28.5 107h-21c-2.8 0-5.5 1.1-7.4 3zm7.4 55.5h21c4.4 0 7.9 3.5 7.9 7.9v21c0 4.4-3.5 7.9-7.9 7.9h-21a7.81 7.81 0 0 1-5.616-2.284A7.8 7.8 0 0 1-.4 194.5v-21c0-4.4 3.5-7.9 7.9-7.9m-7.4.5c2-2 4.6-3.1 7.4-3.1h21A10.5 10.5 0 0 1 39 173.5v21A10.5 10.5 0 0 1 28.5 205h-21A10.5 10.5 0 0 1-3 194.5v-21c0-2.8 1.1-5.5 3-7.4zM84.5 25.6h-21a7.8 7.8 0 0 0-7.9 7.9v21c0 4.4 3.5 7.9 7.9 7.9h21c4.4 0 7.9-3.5 7.9-7.9v-21c0-4.4-3.5-7.9-7.9-7.9m-28.4.5c-2 2-3.1 4.6-3.1 7.4v21A10.5 10.5 0 0 0 63.5 65h21A10.5 10.5 0 0 0 95 54.5v-21A10.5 10.5 0 0 0 84.5 23h-21c-2.8 0-5.5 1.1-7.4 3zm7.4 55.5h19.994q.522-1.32 1.117-2.6H63.5A10.5 10.5 0 0 0 53 89.5v21A10.5 10.5 0 0 0 63.5 121h16.3a20 20 0 0 1 2.683-2.6H63.5a7.81 7.81 0 0 1-5.616-2.284A7.8 7.8 0 0 1 55.6 110.5v-21c0-4.4 3.5-7.9 7.9-7.9M75.025 135H63.5c-2.8 0-5.5 1.1-7.4 3v.1c-2 2-3.1 4.6-3.1 7.4v21A10.5 10.5 0 0 0 63.5 177h21A10.5 10.5 0 0 0 95 166.5V154q-1.322-.001-2.6-.167V166.5c0 4.4-3.5 7.9-7.9 7.9h-21c-4.4 0-7.9-3.5-7.9-7.9v-21a7.8 7.8 0 0 1 7.9-7.9h11.823a20 20 0 0 1-.298-2.6m100.368-55.993q.591 1.278 1.113 2.593H196.5c4.4 0 7.9 3.5 7.9 7.9v21c0 4.4-3.5 7.9-7.9 7.9h-19.994a51 51 0 0 1-1.113 2.593l.107.007h21a10.5 10.5 0 0 0 10.5-10.5v-21A10.5 10.5 0 0 0 196.5 79h-21zM119.5 149.1c-2.164 0-4.259-.668-6.01-1.89a50 50 0 0 0 7.017 1.89zm27.01-1.89a50 50 0 0 1-7.017 1.89h1.007c2.164 0 4.259-.668 6.01-1.89M139.999 51c2.12.43 4.191.995 6.204 1.684A10.5 10.5 0 0 0 140.5 51zm-26.202 1.684A50 50 0 0 1 120.001 51h-.501a10.5 10.5 0 0 0-5.703 1.684M119.5-2.4h21c4.4 0 7.9 3.5 7.9 7.9v21c0 4.4-3.5 7.9-7.9 7.9h-21a7.8 7.8 0 0 1-7.9-7.9v-21c0-4.4 3.5-7.9 7.9-7.9m-7.4.5c2-2 4.6-3.1 7.4-3.1h21A10.5 10.5 0 0 1 151 5.5v21A10.5 10.5 0 0 1 140.5 37h-21A10.5 10.5 0 0 1 109 26.5v-21c0-2.8 1.1-5.5 3-7.4zm7.4 167.5a7.82 7.82 0 0 0-5.616 2.284 7.8 7.8 0 0 0-2.284 5.616v21c0 4.4 3.5 7.9 7.9 7.9h21c4.4 0 7.9-3.5 7.9-7.9v-21c0-4.4-3.5-7.9-7.9-7.9zm-7.4.5c-2 2-3.1 4.6-3.1 7.4v21a10.5 10.5 0 0 0 10.5 10.5h21a10.5 10.5 0 0 0 10.5-10.5v-21a10.5 10.5 0 0 0-10.5-10.5h-21c-2.8 0-5.5 1.1-7.4 3zm63.4-140.5h21c4.4 0 7.9 3.5 7.9 7.9v21c0 4.4-3.5 7.9-7.9 7.9h-21a7.8 7.8 0 0 1-7.9-7.9v-21c0-4.4 3.5-7.9 7.9-7.9m-7.4.5c2-2 4.6-3.1 7.4-3.1h21A10.5 10.5 0 0 1 207 33.5v21A10.5 10.5 0 0 1 196.5 65h-21A10.5 10.5 0 0 1 165 54.5v-21c0-2.8 1.1-5.5 3-7.4zm7.4 111.5h21c4.4 0 7.9 3.5 7.9 7.9v21c0 4.4-3.5 7.9-7.9 7.9h-21a7.82 7.82 0 0 1-5.616-2.284 7.8 7.8 0 0 1-2.284-5.616v-21c0-4.4 3.5-7.9 7.9-7.9m-7.4.5c2-2 4.6-3.1 7.4-3.1h21a10.5 10.5 0 0 1 10.5 10.5v21a10.5 10.5 0 0 1-10.5 10.5h-21a10.5 10.5 0 0 1-10.5-10.5v-21c0-2.8 1.1-5.5 3-7.4zM252.5-2.4h-21a7.8 7.8 0 0 0-7.9 7.9v21c0 4.4 3.5 7.9 7.9 7.9h21c4.4 0 7.9-3.5 7.9-7.9v-21c0-4.4-3.5-7.9-7.9-7.9m-28.4.5c-2 2-3.1 4.6-3.1 7.4v21A10.5 10.5 0 0 0 231.5 37h21A10.5 10.5 0 0 0 263 26.5v-21A10.5 10.5 0 0 0 252.5-5h-21c-2.8 0-5.5 1.1-7.4 3zm7.4 55.5h21c4.4 0 7.9 3.5 7.9 7.9v21c0 4.4-3.5 7.9-7.9 7.9h-21a7.8 7.8 0 0 1-7.9-7.9v-21c0-4.4 3.5-7.9 7.9-7.9m-7.4.5c2-2 4.6-3.1 7.4-3.1h21A10.5 10.5 0 0 1 263 61.5v21A10.5 10.5 0 0 1 252.5 93h-21A10.5 10.5 0 0 1 221 82.5v-21c0-2.8 1.1-5.5 3-7.4zm28.4 55.5h-21a7.82 7.82 0 0 0-5.616 2.284 7.8 7.8 0 0 0-2.284 5.616v21c0 4.4 3.5 7.9 7.9 7.9h21c4.4 0 7.9-3.5 7.9-7.9v-21c0-4.4-3.5-7.9-7.9-7.9m-28.4.5c-2 2-3.1 4.6-3.1 7.4v21a10.5 10.5 0 0 0 10.5 10.5h21a10.5 10.5 0 0 0 10.5-10.5v-21a10.5 10.5 0 0 0-10.5-10.5h-21c-2.8 0-5.5 1.1-7.4 3zm7.4 55.5h21c4.4 0 7.9 3.5 7.9 7.9v21c0 4.4-3.5 7.9-7.9 7.9h-21a7.82 7.82 0 0 1-5.616-2.284 7.8 7.8 0 0 1-2.284-5.616v-21c0-4.4 3.5-7.9 7.9-7.9m-7.4.5c2-2 4.6-3.1 7.4-3.1h21a10.5 10.5 0 0 1 10.5 10.5v21a10.5 10.5 0 0 1-10.5 10.5h-21a10.5 10.5 0 0 1-10.5-10.5v-21c0-2.8 1.1-5.5 3-7.4z"/>
    <path fill="#A0AEC0" d="M80 66c0-8.837 7.163-16 16-16h49c8.837 0 16 7.163 16 16v4h3c8.837 0 16 7.163 16 16v47c0 8.837-7.163 16-16 16h-50.264c-4.398 5.487-11.157 9-18.736 9-13.255 0-24-10.745-24-24 0-7.579 3.513-14.338 9-18.736V66m8 45.037A24 24 0 0 1 95 110c13.255 0 24 10.745 24 24 0 2.435-.363 4.785-1.037 7H164a8 8 0 0 0 8-8V86a8 8 0 0 0-8-8H88zM153 66v4H88v-4a8 8 0 0 1 8-8h49a8 8 0 0 1 8 8m3 40a4 4 0 0 0 0 8h4a4 4 0 0 0 0-8zm-77 28c0-8.837 7.163-16 16-16s16 7.163 16 16-7.163 16-16 16-16-7.163-16-16m10.343-2.828a2 2 0 0 1 2.828-2.829L95 131.171l2.828-2.828a2 2 0 1 1 2.828 2.829L97.828 134l2.829 2.828a2 2 0 0 1-2.829 2.829L95 136.828l-2.829 2.829a2 2 0 1 1-2.828-2.829L92.17 134z"/>
  </g>
  <defs>
    <radialGradient id="b" cx="0" cy="0" r="1" gradientTransform="matrix(0 105 -129.153 0 126.153 100)" gradientUnits="userSpaceOnUse">
      <stop stop-color="#CBD5E0" stop-opacity=".8"/>
      <stop offset="1" stop-color="#CBD5E0" stop-opacity="0"/>
    </radialGradient>
    <clipPath id="a">
      <path fill="#fff" d="M0 0h260v200H0z"/>
    </clipPath>
  </defs>
</svg>
