<svg xmlns="http://www.w3.org/2000/svg" fill="none" viewBox="0 0 240 185">
  <g clip-path="url(#a)">
    <path fill="url(#b)" fill-rule="evenodd" d="M26.307-2.215H6.923A7.2 7.2 0 0 0-.37 5.077v19.385a7.25 7.25 0 0 0 7.293 7.292h19.384a7.25 7.25 0 0 0 7.293-7.292V5.077a7.25 7.25 0 0 0-7.293-7.292m-19.384-2.4A9.69 9.69 0 0 0-2.77 5.077v19.385a9.69 9.69 0 0 0 9.693 9.692h19.384A9.693 9.693 0 0 0 36 24.462V5.077a9.693 9.693 0 0 0-9.693-9.692zm19.384 54.092H6.923A7.2 7.2 0 0 0-.37 56.769v19.385a7.25 7.25 0 0 0 7.293 7.292h19.384a7.25 7.25 0 0 0 7.293-7.292V56.769a7.25 7.25 0 0 0-7.293-7.292m-19.384-2.4a9.69 9.69 0 0 0-9.693 9.692v19.385a9.69 9.69 0 0 0 9.693 9.692h19.384A9.693 9.693 0 0 0 36 76.154V56.769a9.69 9.69 0 0 0-9.693-9.692zm0 54.092h19.384a7.25 7.25 0 0 1 7.293 7.293v19.384a7.25 7.25 0 0 1-7.293 7.292H6.923a7.2 7.2 0 0 1-5.184-2.108 7.19 7.19 0 0 1-2.109-5.184v-19.384a7.25 7.25 0 0 1 7.293-7.293m-9.693 7.293a9.693 9.693 0 0 1 9.693-9.693h19.384A9.69 9.69 0 0 1 36 108.462v19.384a9.694 9.694 0 0 1-9.693 9.692H6.923a9.694 9.694 0 0 1-9.693-9.692zm29.077 44.4H6.923a7.2 7.2 0 0 0-5.184 2.108 7.19 7.19 0 0 0-2.109 5.184v19.384a7.25 7.25 0 0 0 7.293 7.293h19.384a7.25 7.25 0 0 0 7.293-7.293v-19.384a7.25 7.25 0 0 0-7.293-7.292m-19.384-2.4a9.694 9.694 0 0 0-9.693 9.692v19.384a9.693 9.693 0 0 0 9.693 9.693h19.384A9.69 9.69 0 0 0 36 179.538v-19.384a9.694 9.694 0 0 0-9.693-9.692zM58.615 23.631H78a7.25 7.25 0 0 1 7.292 7.292v19.385A7.25 7.25 0 0 1 78 57.6H58.615a7.2 7.2 0 0 1-7.292-7.292V30.923a7.25 7.25 0 0 1 7.292-7.292m-9.692 7.292a9.69 9.69 0 0 1 9.692-9.692H78a9.69 9.69 0 0 1 9.692 9.692v19.385A9.69 9.69 0 0 1 78 60H58.615a9.69 9.69 0 0 1-9.692-9.692zM78 75.323H58.615a7.2 7.2 0 0 0-7.292 7.292V102a7.25 7.25 0 0 0 7.292 7.292H78A7.25 7.25 0 0 0 85.292 102v-2.123a28.6 28.6 0 0 0 1.754 5.631A9.69 9.69 0 0 1 78 111.692H58.615A9.694 9.694 0 0 1 48.923 102V82.615a9.69 9.69 0 0 1 9.692-9.692H78c4.061 0 7.569 2.492 9.046 6.185-.83 1.754-1.385 3.692-1.846 5.538v-2.03c0-4.062-3.139-7.293-7.2-7.293m61.384-12.83v-5.724a9.694 9.694 0 0 0-9.692-9.692h-19.385a9.693 9.693 0 0 0-9.692 9.692v5.723l2.4-1.477V56.77a7.25 7.25 0 0 1 7.292-7.292h19.385a7.25 7.25 0 0 1 7.292 7.292v4.246zm13.57 43.015a9.685 9.685 0 0 0 9.046 6.184h19.384a9.695 9.695 0 0 0 9.693-9.692V82.615a9.695 9.695 0 0 0-9.693-9.692H162a9.69 9.69 0 0 0-9.046 6.185c.83 1.754 1.384 3.692 1.846 5.538v-2.03c0-4.062 3.138-7.293 7.2-7.293h19.384a7.25 7.25 0 0 1 7.293 7.292V102a7.25 7.25 0 0 1-7.293 7.292H162a7.196 7.196 0 0 1-7.293-7.292v-2.123a28.6 28.6 0 0 1-1.753 5.631m-52.339 16.615v5.815a9.69 9.69 0 0 0 9.692 9.693h19.385a9.69 9.69 0 0 0 9.692-9.693v-5.723l-2.4 1.385v4.338a7.25 7.25 0 0 1-7.292 7.293h-19.385a7.2 7.2 0 0 1-5.217-2.141 7.19 7.19 0 0 1-2.075-5.244v-4.154l-2.4-1.384zm-42 4.892H78a7.25 7.25 0 0 1 7.292 7.293v19.384A7.25 7.25 0 0 1 78 160.985H58.615a7.2 7.2 0 0 1-5.184-2.109 7.2 7.2 0 0 1-2.108-5.184v-19.384a7.25 7.25 0 0 1 7.292-7.293m-9.692 7.293a9.693 9.693 0 0 1 9.692-9.693H78a9.695 9.695 0 0 1 9.692 9.693v19.384A9.693 9.693 0 0 1 78 163.385H58.615a9.695 9.695 0 0 1-9.692-9.693zM129.692-2.215h-19.385a7.2 7.2 0 0 0-7.292 7.292v19.385a7.25 7.25 0 0 0 7.292 7.292h19.385a7.25 7.25 0 0 0 7.292-7.292V5.077a7.25 7.25 0 0 0-7.292-7.292m-19.385-2.4a9.693 9.693 0 0 0-9.692 9.692v19.385a9.69 9.69 0 0 0 9.692 9.692h19.385a9.694 9.694 0 0 0 9.692-9.692V5.077a9.694 9.694 0 0 0-9.692-9.692zm-7.292 164.769a7.25 7.25 0 0 1 7.292-7.292h19.385a7.25 7.25 0 0 1 7.292 7.292v19.384a7.25 7.25 0 0 1-7.292 7.293h-19.385a7.2 7.2 0 0 1-5.184-2.108 7.22 7.22 0 0 1-2.108-5.185zm-2.4 0a9.69 9.69 0 0 1 9.692-9.692h19.385a9.7 9.7 0 0 1 6.854 2.838 9.7 9.7 0 0 1 2.838 6.854v19.384a9.695 9.695 0 0 1-9.692 9.693h-19.385a9.69 9.69 0 0 1-9.692-9.693zm80.769-136.523H162a7.2 7.2 0 0 0-5.184 2.108 7.2 7.2 0 0 0-2.109 5.184v19.385A7.25 7.25 0 0 0 162 57.6h19.384a7.25 7.25 0 0 0 7.293-7.292V30.923a7.25 7.25 0 0 0-7.293-7.292M162 21.23a9.69 9.69 0 0 0-9.693 9.692v19.385A9.695 9.695 0 0 0 162 60h19.384a9.693 9.693 0 0 0 9.693-9.692V30.923a9.695 9.695 0 0 0-9.693-9.692zm19.384 105.784H162a7.188 7.188 0 0 0-5.184 2.109 7.19 7.19 0 0 0-2.109 5.184v19.384a7.25 7.25 0 0 0 7.293 7.293h19.384a7.25 7.25 0 0 0 7.293-7.293v-19.384a7.25 7.25 0 0 0-7.293-7.293m-19.384-2.4a9.696 9.696 0 0 0-9.693 9.693v19.384a9.696 9.696 0 0 0 9.693 9.693h19.384a9.696 9.696 0 0 0 9.693-9.693v-19.384a9.696 9.696 0 0 0-9.693-9.693zm51.692-126.83h19.385a7.25 7.25 0 0 1 7.292 7.292v19.385a7.25 7.25 0 0 1-7.292 7.292h-19.385a7.2 7.2 0 0 1-7.292-7.292V5.077a7.25 7.25 0 0 1 7.292-7.292M204 5.077a9.69 9.69 0 0 1 9.692-9.692h19.385a9.693 9.693 0 0 1 9.692 9.692v19.385a9.69 9.69 0 0 1-9.692 9.692h-19.385A9.69 9.69 0 0 1 204 24.462zm29.077 44.4h-19.385a7.2 7.2 0 0 0-6.762 4.487 7.2 7.2 0 0 0-.53 2.805v19.385a7.25 7.25 0 0 0 7.292 7.292h19.385a7.25 7.25 0 0 0 7.292-7.292V56.769a7.25 7.25 0 0 0-7.292-7.292m-19.385-2.4A9.69 9.69 0 0 0 204 56.769v19.385a9.69 9.69 0 0 0 9.692 9.692h19.385a9.693 9.693 0 0 0 9.692-9.692V56.769a9.69 9.69 0 0 0-9.692-9.692zm0 54.092h19.385a7.25 7.25 0 0 1 7.292 7.293v19.384a7.25 7.25 0 0 1-7.292 7.292h-19.385a7.19 7.19 0 0 1-5.184-2.108 7.2 7.2 0 0 1-1.578-2.379 7.2 7.2 0 0 1-.53-2.805v-19.384a7.25 7.25 0 0 1 7.292-7.293M204 108.462a9.69 9.69 0 0 1 9.692-9.693h19.385a9.693 9.693 0 0 1 9.692 9.693v19.384a9.69 9.69 0 0 1-9.692 9.692h-19.385a9.69 9.69 0 0 1-9.692-9.692zm29.077 44.4h-19.385a7.19 7.19 0 0 0-5.184 2.108 7.2 7.2 0 0 0-1.578 2.379 7.2 7.2 0 0 0-.53 2.805v19.384a7.25 7.25 0 0 0 7.292 7.293h19.385a7.25 7.25 0 0 0 7.292-7.293v-19.384a7.25 7.25 0 0 0-7.292-7.292m-19.385-2.4a9.69 9.69 0 0 0-9.692 9.692v19.384a9.69 9.69 0 0 0 9.692 9.693h19.385a9.69 9.69 0 0 0 9.692-9.693v-19.384a9.69 9.69 0 0 0-9.692-9.692z" clip-rule="evenodd"/>
    <path fill="#A0AEC0" fill-opacity=".5" d="M87.231 68.308c1.385-1.847 4.154-.923 4.154 1.477v.369a6.46 6.46 0 0 0 6.462 6.461h44.307a6.46 6.46 0 0 0 6.462-6.461v-.37c0-2.307 2.769-3.415 4.154-1.476.276.369.461.923.461 1.477v.369a11.08 11.08 0 0 1-11.077 11.077H97.847A11.077 11.077 0 0 1 86.77 70.154v-.37c0-.553.184-1.107.461-1.476m65.539 48c.276-.37.461-.923.461-1.477v-.369a11.08 11.08 0 0 0-11.077-11.077H97.847a11.08 11.08 0 0 0-11.077 11.077v.369c0 .554.184 1.107.461 1.477 1.385 1.846 4.154.923 4.154-1.477v-.369A6.46 6.46 0 0 1 97.847 108h44.307a6.46 6.46 0 0 1 6.462 6.462v.369c0 2.307 2.769 3.415 4.154 1.477"/>
    <path fill="#A0AEC0" fill-rule="evenodd" d="M153.231 92.308a33.23 33.23 0 0 1-20.514 30.701A33.232 33.232 0 1 1 120 59.077a33.23 33.23 0 0 1 33.231 33.23m-5.262 33.877a3.97 3.97 0 0 0-4.984-.37 40.62 40.62 0 0 1-54.212-7.539 40.615 40.615 0 1 1 64.735-2.984c-1.108 1.57-.923 3.693.369 4.985l18.185 18.185a3.693 3.693 0 0 1 0 5.169l-.739.738a3.69 3.69 0 0 1-5.169 0z" clip-rule="evenodd"/>
  </g>
  <defs>
    <radialGradient id="b" cx="0" cy="0" r="1" gradientTransform="matrix(0 96.9231 -119.218 0 116.449 92.308)" gradientUnits="userSpaceOnUse">
      <stop stop-color="#CBD5E0" stop-opacity=".8"/>
      <stop offset="1" stop-color="#CBD5E0" stop-opacity="0"/>
    </radialGradient>
    <clipPath id="a">
      <path fill="#fff" d="M0 0h240v184.615H0z"/>
    </clipPath>
  </defs>
</svg>
