<svg xmlns="http://www.w3.org/2000/svg" fill="none" viewBox="0 0 260 200">
  <g clip-path="url(#a)">
    <path fill="url(#b)" fill-rule="evenodd" d="M28.5-2.4h-21C3.1-2.4-.4 1.1-.4 5.5v21a7.8 7.8 0 0 0 7.9 7.9h21c4.4 0 7.9-3.5 7.9-7.9v-21c0-4.4-3.5-7.9-7.9-7.9M3.468-4.242A9.8 9.8 0 0 0 .1-1.9H0C-1.9 0-3 2.7-3 5.5v21A10.5 10.5 0 0 0 7.5 37h21A10.5 10.5 0 0 0 39 26.5v-21A10.5 10.5 0 0 0 28.5-5h-21a9.8 9.8 0 0 0-4.032.758M28.5 53.6h-21c-4.4 0-7.9 3.5-7.9 7.9v21a7.8 7.8 0 0 0 7.9 7.9h21c4.4 0 7.9-3.5 7.9-7.9v-21c0-4.4-3.5-7.9-7.9-7.9M7.5 51c-2.8 0-5.4 1.1-7.4 3.1H0c-1.9 1.9-3 4.6-3 7.4v21A10.5 10.5 0 0 0 7.5 93h21A10.5 10.5 0 0 0 39 82.5v-21A10.5 10.5 0 0 0 28.5 51zm0 58.6h21c4.4 0 7.9 3.5 7.9 7.9v21c0 4.4-3.5 7.9-7.9 7.9h-21c-4.4 0-7.9-3.5-7.9-7.9v-21a7.8 7.8 0 0 1 7.9-7.9M-3 117.5c0-2.8 1.1-5.4 3.1-7.4v-.1c1.9-1.9 4.6-3 7.4-3h21A10.5 10.5 0 0 1 39 117.5v21A10.5 10.5 0 0 1 28.5 149h-21A10.5 10.5 0 0 1-3 138.5zm31.5 48.1h-21c-4.4 0-7.9 3.5-7.9 7.9v21a7.8 7.8 0 0 0 7.9 7.9h21c4.4 0 7.9-3.5 7.9-7.9v-21c0-4.4-3.5-7.9-7.9-7.9m-21-2.6c-2.8 0-5.4 1.1-7.4 3.1H0c-1.9 1.9-3 4.6-3 7.4v21A10.5 10.5 0 0 0 7.5 205h21A10.5 10.5 0 0 0 39 194.5v-21A10.5 10.5 0 0 0 28.5 163zm56-137.4h21c4.4 0 7.9 3.5 7.9 7.9v21c0 4.4-3.5 7.9-7.9 7.9h-21c-4.4 0-7.9-3.5-7.9-7.9v-21a7.8 7.8 0 0 1 7.9-7.9M53 33.5c0-2.8 1.1-5.4 3.1-7.4V26c1.9-1.9 4.6-3 7.4-3h21A10.5 10.5 0 0 1 95 33.5v21A10.5 10.5 0 0 1 84.5 65h-21A10.5 10.5 0 0 1 53 54.5zm30.494 48.1H63.5c-4.4 0-7.9 3.5-7.9 7.9v21a7.8 7.8 0 0 0 7.9 7.9h19.994q.522 1.319 1.116 2.599l-.11.001h-21A10.5 10.5 0 0 1 53 110.5v-21A10.5 10.5 0 0 1 63.5 79h21.11q-.593 1.28-1.116 2.6m93.012 0a51 51 0 0 0-1.113-2.593L175.5 79h21A10.5 10.5 0 0 1 207 89.5v21a10.5 10.5 0 0 1-10.5 10.5h-21l-.107-.007q.591-1.278 1.113-2.593H196.5c4.4 0 7.9-3.5 7.9-7.9v-21c0-4.4-3.5-7.9-7.9-7.9zm-63.016 65.61a10.5 10.5 0 0 0 6.01 1.89h1.007a50 50 0 0 1-7.017-1.89m26.003 1.89a50 50 0 0 0 7.017-1.89 10.5 10.5 0 0 1-6.01 1.89zm6.71-96.416A50 50 0 0 0 139.999 51h.501a10.5 10.5 0 0 1 5.703 1.684M120.001 51c-2.12.43-4.191.995-6.204 1.684A10.5 10.5 0 0 1 119.5 51zM63.5 137.6h21c4.4 0 7.9 3.5 7.9 7.9v21c0 4.4-3.5 7.9-7.9 7.9h-21c-4.4 0-7.9-3.5-7.9-7.9v-21a7.8 7.8 0 0 1 7.9-7.9M53 145.5c0-2.8 1.1-5.4 3.1-7.4v-.1c1.9-1.9 4.6-3 7.4-3h21A10.5 10.5 0 0 1 95 145.5v21A10.5 10.5 0 0 1 84.5 177h-21A10.5 10.5 0 0 1 53 166.5zM140.5-2.4h-21c-4.4 0-7.9 3.5-7.9 7.9v21a7.81 7.81 0 0 0 2.284 5.616A7.8 7.8 0 0 0 119.5 34.4h21c4.4 0 7.9-3.5 7.9-7.9v-21c0-4.4-3.5-7.9-7.9-7.9m-21-2.6c-2.8 0-5.4 1.1-7.4 3.1h-.1c-1.9 1.9-3 4.6-3 7.4v21A10.5 10.5 0 0 0 119.5 37h21A10.5 10.5 0 0 0 151 26.5v-21A10.5 10.5 0 0 0 140.5-5zm-3.039 171.174a7.8 7.8 0 0 1 3.039-.574h21c4.4 0 7.9 3.5 7.9 7.9v21c0 4.4-3.5 7.9-7.9 7.9h-21c-4.4 0-7.9-3.5-7.9-7.9v-21a7.82 7.82 0 0 1 2.284-5.616 7.8 7.8 0 0 1 2.577-1.71M109 173.5c0-2.8 1.1-5.4 3.1-7.4v-.1c1.9-1.9 4.6-3 7.4-3h21a10.5 10.5 0 0 1 10.5 10.5v21a10.5 10.5 0 0 1-10.5 10.5h-21a10.5 10.5 0 0 1-10.5-10.5zm87.5-147.9h-21c-4.4 0-7.9 3.5-7.9 7.9v21a7.81 7.81 0 0 0 2.284 5.616A7.8 7.8 0 0 0 175.5 62.4h21c4.4 0 7.9-3.5 7.9-7.9v-21c0-4.4-3.5-7.9-7.9-7.9m-21-2.6c-2.8 0-5.4 1.1-7.4 3.1h-.1c-1.9 1.9-3 4.6-3 7.4v21A10.5 10.5 0 0 0 175.5 65h21A10.5 10.5 0 0 0 207 54.5v-21a10.51 10.51 0 0 0-3.075-7.425A10.5 10.5 0 0 0 196.5 23zm21 114.6h-21c-4.4 0-7.9 3.5-7.9 7.9v21a7.82 7.82 0 0 0 2.284 5.616 7.8 7.8 0 0 0 5.616 2.284h21c4.4 0 7.9-3.5 7.9-7.9v-21c0-4.4-3.5-7.9-7.9-7.9m-21-2.6c-2.8 0-5.4 1.1-7.4 3.1h-.1c-1.9 1.9-3 4.6-3 7.4v21a10.5 10.5 0 0 0 10.5 10.5h21a10.5 10.5 0 0 0 10.5-10.5v-21a10.5 10.5 0 0 0-10.5-10.5zm56-137.4h21c4.4 0 7.9 3.5 7.9 7.9v21c0 4.4-3.5 7.9-7.9 7.9h-21c-4.4 0-7.9-3.5-7.9-7.9v-21a7.81 7.81 0 0 1 2.284-5.616A7.8 7.8 0 0 1 231.5-2.4M221 5.5c0-2.8 1.1-5.4 3.1-7.4V-2c1.9-1.9 4.6-3 7.4-3h21A10.5 10.5 0 0 1 263 5.5v21A10.5 10.5 0 0 1 252.5 37h-21A10.5 10.5 0 0 1 221 26.5zm31.5 48.1h-21c-4.4 0-7.9 3.5-7.9 7.9v21a7.81 7.81 0 0 0 2.284 5.616A7.8 7.8 0 0 0 231.5 90.4h21c4.4 0 7.9-3.5 7.9-7.9v-21c0-4.4-3.5-7.9-7.9-7.9m-21-2.6c-2.8 0-5.4 1.1-7.4 3.1h-.1c-1.9 1.9-3 4.6-3 7.4v21A10.5 10.5 0 0 0 231.5 93h21A10.5 10.5 0 0 0 263 82.5v-21A10.5 10.5 0 0 0 252.5 51zm0 58.6h21c4.4 0 7.9 3.5 7.9 7.9v21c0 4.4-3.5 7.9-7.9 7.9h-21c-4.4 0-7.9-3.5-7.9-7.9v-21a7.82 7.82 0 0 1 2.284-5.616 7.8 7.8 0 0 1 5.616-2.284m-10.5 7.9c0-2.8 1.1-5.4 3.1-7.4v-.1c1.9-1.9 4.6-3 7.4-3h21a10.5 10.5 0 0 1 10.5 10.5v21a10.5 10.5 0 0 1-10.5 10.5h-21a10.5 10.5 0 0 1-10.5-10.5zm31.5 48.1h-21c-4.4 0-7.9 3.5-7.9 7.9v21a7.82 7.82 0 0 0 2.284 5.616 7.8 7.8 0 0 0 5.616 2.284h21c4.4 0 7.9-3.5 7.9-7.9v-21c0-4.4-3.5-7.9-7.9-7.9m-21-2.6c-2.8 0-5.4 1.1-7.4 3.1h-.1c-1.9 1.9-3 4.6-3 7.4v21a10.5 10.5 0 0 0 10.5 10.5h21a10.5 10.5 0 0 0 10.5-10.5v-21a10.5 10.5 0 0 0-10.5-10.5z" clip-rule="evenodd"/>
    <path fill="#A0AEC0" d="M134 73a4 4 0 0 0-8 0v27c0 1.061.421 2.078 1.172 2.828l18 18a3.997 3.997 0 0 0 5.656 0 3.997 3.997 0 0 0 0-5.656L134 98.343z"/>
    <path fill="#A0AEC0" fill-rule="evenodd" d="M180 100c0 27.614-22.386 50-50 50s-50-22.386-50-50 22.386-50 50-50 50 22.386 50 50m-8 0c0 23.196-18.804 42-42 42s-42-18.804-42-42 18.804-42 42-42 42 18.804 42 42" clip-rule="evenodd"/>
  </g>
  <defs>
    <radialGradient id="b" cx="0" cy="0" r="1" gradientTransform="matrix(0 105 -129.153 0 126.153 100)" gradientUnits="userSpaceOnUse">
      <stop stop-color="#CBD5E0" stop-opacity=".8"/>
      <stop offset="1" stop-color="#CBD5E0" stop-opacity="0"/>
    </radialGradient>
    <clipPath id="a">
      <path fill="#fff" d="M0 0h260v200H0z"/>
    </clipPath>
  </defs>
</svg>
