<svg xmlns="http://www.w3.org/2000/svg" fill="none" viewBox="0 0 20 20">
  <g clip-path="url(#a)">
    <path fill="url(#b)" stroke="#971B1F" d="M1.67 1.893A.93.93 0 0 1 2.474.5h3.784c.59 0 1.134.316 1.426.828l6.537 11.434a.93.93 0 0 1-.342 1.265l-3.098 1.79a.93.93 0 0 1-1.269-.34z"/>
    <path fill="url(#c)" stroke="#971B1F" d="M17.528.5a.93.93 0 0 1 .804 1.393l-8.3 14.387-4.704-2.715 6.99-12.237A1.64 1.64 0 0 1 13.743.5z"/>
    <circle cx="10" cy="13.571" r="5.929" fill="url(#d)" stroke="#848484"/>
    <circle cx="10" cy="13.571" r="3.786" fill="url(#e)" stroke="#979696"/>
  </g>
  <defs>
    <linearGradient id="b" x1="7.68" x2="7.68" y1="0" y2="16.963" gradientUnits="userSpaceOnUse">
      <stop stop-color="#E92329"/>
      <stop offset=".556" stop-color="#971A1E"/>
    </linearGradient>
    <linearGradient id="c" x1="12.324" x2="12.324" y1="0" y2="16.963" gradientUnits="userSpaceOnUse">
      <stop offset=".163" stop-color="#F2333B"/>
      <stop offset=".545" stop-color="#8C1E22"/>
    </linearGradient>
    <linearGradient id="d" x1="10" x2="10" y1="7.143" y2="20" gradientUnits="userSpaceOnUse">
      <stop stop-color="#C2C2C2"/>
      <stop offset="1" stop-color="#B8B8B8"/>
    </linearGradient>
    <linearGradient id="e" x1="10" x2="10" y1="9.286" y2="17.857" gradientUnits="userSpaceOnUse">
      <stop stop-color="#F8F8F8"/>
      <stop offset="1" stop-color="#BCBCBC"/>
    </linearGradient>
    <clipPath id="a">
      <path fill="#fff" d="M0 0h20v20H0z"/>
    </clipPath>
  </defs>
</svg>
