<svg xmlns="http://www.w3.org/2000/svg" fill="none" viewBox="0 0 80 12">
  <path fill="#2B6CB0" fill-rule="evenodd" d="M4.783.735A.556.556 0 0 0 4.226.18h-1.32a.556.556 0 0 0-.556.555V2.05c0 .306-.25.555-.557.555H.557A.556.556 0 0 0 0 3.159v8.104c0 .307.25.555.557.555h1.32a.556.556 0 0 0 .556-.555V3.16c0-.306.25-.554.557-.554h1.236a.556.556 0 0 0 .557-.555zm4.867 0A.556.556 0 0 0 9.093.18h-1.32a.556.556 0 0 0-.556.555V2.05c0 .306.249.555.557.555H9.01c.307 0 .557.248.557.554v8.104c0 .307.249.555.556.555h1.32a.556.556 0 0 0 .557-.555V3.16a.556.556 0 0 0-.557-.554h-1.236a.556.556 0 0 1-.557-.555zM7.217 5.376a.556.556 0 0 0-.557-.555H5.34a.556.556 0 0 0-.557.555v3.601c0 .307.25.555.557.555h1.32a.556.556 0 0 0 .557-.555z" clip-rule="evenodd"/>
  <path fill="#2B6CB0" d="M17.685 1.867h3.607c1.528 0 2.355.834 2.355 2.036.01.375-.087.746-.281 1.062a1.8 1.8 0 0 1-.81.712v.039c.43.136.806.415 1.068.794.263.38.398.838.386 1.305 0 1.344-.895 2.4-2.518 2.4h-3.807zm3.632 3.392c.576 0 .99-.443.99-1.118 0-.674-.414-1.117-.99-1.117h-2.289v2.235zm.163 3.808c.689 0 1.19-.547 1.19-1.343s-.501-1.33-1.19-1.33h-2.452v2.673zM25.688 2.86h-.755V1.6h2.08v8.61h-1.328zM28.242 7.124c0-1.89 1.342-3.286 3.195-3.286 1.854 0 3.207 1.382 3.207 3.286s-1.34 3.274-3.207 3.274-3.195-1.383-3.195-3.274m2.845 2.035h.715c.815 0 1.529-.9 1.529-2.035 0-1.134-.716-2.05-1.529-2.05h-.715c-.814 0-1.528.932-1.528 2.05s.713 2.035 1.528 2.035M35.506 7.111c0-1.93 1.28-3.273 3.12-3.273 1.479 0 2.644.795 2.832 2.422h-1.29c-.126-.822-.69-1.187-1.266-1.187h-.626c-.802 0-1.453.913-1.453 2.05s.651 2.06 1.453 2.06h.626c.32.001.63-.123.866-.347a1.35 1.35 0 0 0 .412-.866h1.29c-.179 1.604-1.353 2.439-2.863 2.439-1.836-.011-3.1-1.368-3.1-3.298M42.658 1.6h1.315v4.75h.954l1.779-2.335h1.503l-2.192 2.882 2.292 3.313H46.73l-1.917-2.74h-.84v2.74h-1.316zM48.91 8.35h1.265c.063.548.389.9 1.074.9h.828c.589 0 .864-.313.864-.73 0-.418-.225-.665-.764-.746l-1.392-.186c-1.177-.143-1.703-.874-1.703-1.826 0-1.252.895-1.93 2.492-1.93 1.53 0 2.457.64 2.506 2.06h-1.265c-.063-.534-.276-.912-.927-.912h-.754c-.563 0-.826.313-.826.717s.25.678.789.757l1.404.186c1.14.143 1.666.782 1.666 1.774 0 1.278-.814 1.982-2.618 1.982-1.744.002-2.59-.69-2.639-2.046M54.994 7.111c0-1.93 1.277-3.273 3.12-3.273 1.478 0 2.643.795 2.831 2.422h-1.29c-.125-.822-.689-1.187-1.265-1.187h-.626c-.804 0-1.455.913-1.455 2.05s.651 2.06 1.455 2.06h.626c.32.001.63-.123.866-.347.236-.225.383-.534.412-.866h1.29c-.18 1.604-1.353 2.439-2.863 2.439-1.834-.011-3.101-1.368-3.101-3.298M61.793 7.124c0-1.89 1.34-3.286 3.194-3.286s3.209 1.382 3.209 3.286-1.34 3.274-3.209 3.274-3.194-1.383-3.194-3.274m2.844 2.035h.715c.814 0 1.53-.9 1.53-2.035 0-1.134-.716-2.05-1.53-2.05h-.715c-.815 0-1.529.932-1.529 2.05s.718 2.035 1.532 2.035zM69.287 7.92V4.022h1.315v3.665c0 .9.439 1.434 1.015 1.434h.715c.614 0 1.165-.586 1.165-1.434V4.022h1.317v6.195h-1.28v-.848c-.357.64-.989 1.03-1.953 1.03-1.442-.001-2.294-.875-2.294-2.48M77.003 8.768v-3.54H75.85V4.022h1.153V2.286h1.327v1.736h1.553v1.2H78.33v3.156c0 .404.126.6.551.6h1.052v1.239h-1.43c-.964-.002-1.5-.524-1.5-1.45"/>
</svg>
