<svg xmlns="http://www.w3.org/2000/svg" fill="none" viewBox="0 0 20 20">
  <path fill="currentColor" fill-rule="evenodd" d="M7.614 4.039a2.75 2.75 0 0 1 3.368-1.945l4.83 1.294a2.75 2.75 0 0 1 1.944 3.369l-2.07 7.727a2.75 2.75 0 0 1-3.369 1.944l-.052-.014a2.75 2.75 0 0 1-2.515 1.637h-5A2.75 2.75 0 0 1 2 15.301v-8a2.75 2.75 0 0 1 2.75-2.75h2.726zm5.092 10.94-.206-.054V7.3a2.75 2.75 0 0 0-2.75-2.75h-.72l.033-.124a1.25 1.25 0 0 1 1.53-.884l4.83 1.294a1.25 1.25 0 0 1 .884 1.531l-2.07 7.728a1.25 1.25 0 0 1-1.531.884M4.75 6.052c-.69 0-1.25.56-1.25 1.25v8c0 .69.56 1.25 1.25 1.25h5c.69 0 1.25-.56 1.25-1.25v-8c0-.69-.56-1.25-1.25-1.25z" clip-rule="evenodd"/>
</svg>
