<svg xmlns="http://www.w3.org/2000/svg" fill="none" viewBox="0 0 20 21">
  <path fill="currentColor" d="M8.164 1.373a9.3 9.3 0 0 1 8.06 2.233l.045.04a9 9 0 0 1 .638.645l.029.033a9 9 0 0 1 .626.789l.15.213q.13.199.25.402.226.378.415.772.017.037.033.074.126.27.233.545l.03.08a9.3 9.3 0 0 1 .607 3.297l-.012.461a9.3 9.3 0 0 1-2.395 5.78l-.317.335a9.3 9.3 0 0 1-6.114 2.712l-.461.011a9.3 9.3 0 0 1-4.876-1.38l-.29-.187a9 9 0 0 1-.819-.615l-.055-.05a9 9 0 0 1-.438-.397l-.097-.097a10 10 0 0 1-.59-.648l-.062-.074a10 10 0 0 1-.703-.997A9.301 9.301 0 0 1 8.164 1.373m1.817 1.51a7.6 7.6 0 0 0-3.993 1.13l-.238.152a7.6 7.6 0 0 0-2.691 3.16l-.112.258a7.6 7.6 0 0 0-.434 4.399l.06.276a7.6 7.6 0 0 0 2.024 3.622l.203.196a7.6 7.6 0 0 0 3.695 1.888l.278.05a7.6 7.6 0 0 0 4.12-.483l.26-.113a7.6 7.6 0 0 0 3.159-2.691l.152-.238a7.6 7.6 0 0 0 1.131-3.993l-.009-.378a7.6 7.6 0 0 0-1.962-4.732l-.26-.273a7.61 7.61 0 0 0-5.005-2.221zm.083 1.138c.193.019.374.104.512.242l.056.061c.123.15.191.34.191.535v5.29l3.631 3.626q.12.117.185.273l.027.078q.037.121.037.245l-.005.084a1 1 0 0 1-.032.162l-.027.079a.9.9 0 0 1-.129.213l-.057.061a.8.8 0 0 1-.199.146l-.075.035a.85.85 0 0 1-.566.028l-.079-.028a.8.8 0 0 1-.274-.181l-3.877-3.876a.9.9 0 0 1-.146-.2l-.036-.075a.9.9 0 0 1-.063-.324V4.86c0-.224.09-.438.247-.596l.062-.056a.84.84 0 0 1 .534-.191z"/>
</svg>
