<svg xmlns="http://www.w3.org/2000/svg" fill="none" viewBox="0 0 20 20">
  <path fill="currentColor" fill-opacity=".8" d="M8.583 5.865c.321 0 .582.269.582.601v.52c0 .332-.26.602-.582.602H8.3a.59.59 0 0 0-.582.601v5.345c0 .332-.26.601-.582.601h-.555A.59.59 0 0 1 6 13.534V8.189c0-.332.26-.601.582-.601h.282c.321 0 .581-.27.581-.602v-.52c0-.332.26-.601.582-.601zM12.033 5.865c.321 0 .582.269.582.601v.52c0 .332.26.602.581.602h.222c.322 0 .582.269.582.601v5.345c0 .332-.26.601-.582.601h-.555a.59.59 0 0 1-.582-.601V8.189a.59.59 0 0 0-.582-.601h-.222a.59.59 0 0 1-.582-.602v-.52c0-.332.26-.601.582-.601zM10.29 9.163c.321 0 .582.27.582.602v2.144c0 .332-.261.602-.582.602h-.556a.59.59 0 0 1-.582-.602V9.765c0-.333.26-.602.582-.602z"/>
  <path fill="currentColor" fill-opacity=".8" fill-rule="evenodd" d="M10.716 1.175a1.55 1.55 0 0 0-1.432 0l-6.4 3.308A1.66 1.66 0 0 0 2 5.963v8.075c0 .626.342 1.199.884 1.48l6.4 3.307c.45.233.981.233 1.431 0l6.4-3.308a1.66 1.66 0 0 0 .885-1.48V5.963c0-.626-.342-1.199-.884-1.48zM3.6 5.962 10 2.654l6.4 3.308v8.076L10 17.346l-6.4-3.308z" clip-rule="evenodd"/>
</svg>
