<svg xmlns="http://www.w3.org/2000/svg" fill="none" viewBox="0 0 20 20">
  <path fill="currentColor" fill-rule="evenodd" d="M8 2.25a2.75 2.75 0 0 0-2.45 4H3a.75.75 0 0 0-.75.75v3c0 .414.336.75.75.75h.25V15A2.75 2.75 0 0 0 6 17.75h8A2.75 2.75 0 0 0 16.75 15v-4.25H17a.75.75 0 0 0 .75-.75V7a.75.75 0 0 0-.75-.75h-2.55A2.75 2.75 0 0 0 10 3.113a2.74 2.74 0 0 0-2-.863m7.25 8.5h-4.5v5.5H14c.69 0 1.25-.56 1.25-1.25zm-6 0h-4.5V15c0 .69.56 1.25 1.25 1.25h3.25zm7-1.5v-1.5H3.75v1.5zM9.25 5v1.25H8A1.25 1.25 0 1 1 9.25 5m4 0c0 .69-.56 1.25-1.25 1.25h-1.25V5a1.25 1.25 0 1 1 2.5 0" clip-rule="evenodd"/>
</svg>
