<svg xmlns="http://www.w3.org/2000/svg" fill="none" viewBox="0 0 20 20">
  <path fill="currentColor" fill-rule="evenodd" d="M3.636 0A3.636 3.636 0 0 0 0 3.636v12.728A3.636 3.636 0 0 0 3.636 20h12.728A3.636 3.636 0 0 0 20 16.364V3.636A3.636 3.636 0 0 0 16.364 0zm6.775 4.367a.444.444 0 0 0-.822 0L8.279 7.54a.45.45 0 0 1-.376.275L4.5 8.09a.45.45 0 0 0-.254.787l2.592 2.236a.45.45 0 0 1 .143.445L6.19 14.9a.446.446 0 0 0 .666.487l2.912-1.79a.44.44 0 0 1 .464 0l2.912 1.79a.446.446 0 0 0 .666-.487l-.792-3.342a.45.45 0 0 1 .143-.445l2.592-2.236a.45.45 0 0 0-.254-.787l-3.402-.275a.45.45 0 0 1-.375-.275z" clip-rule="evenodd"/>
</svg>
