<svg xmlns="http://www.w3.org/2000/svg" fill="none" viewBox="0 0 18 18">
  <path fill="#101112" fill-opacity=".8" d="M9 17.333A8.333 8.333 0 1 0 9 .667a8.333 8.333 0 0 0 0 16.666"/>
  <path fill="#fff" d="M12.789 6.158s-1.084-.85-2.367-.947l-.113.231c1.158.284 1.689.69 2.246 1.188-.957-.488-1.905-.947-3.552-.947s-2.594.46-3.551.947c.556-.498 1.188-.95 2.246-1.188l-.114-.23c-1.344.126-2.367.946-2.367.946s-1.21 1.758-1.419 5.209c1.22 1.41 3.076 1.42 3.076 1.42l.388-.519a4.7 4.7 0 0 1-2.045-1.376c.765.579 1.924 1.184 3.79 1.184 1.865 0 3.02-.602 3.789-1.184a4.73 4.73 0 0 1-2.045 1.377l.388.517s1.855-.01 3.076-1.42c-.215-3.45-1.426-5.208-1.426-5.208M7.46 10.42c-.459 0-.83-.423-.83-.947s.371-.947.83-.947c.46 0 .83.423.83.947s-.37.947-.83.947m3.08 0c-.46 0-.83-.423-.83-.947s.37-.947.83-.947.83.423.83.947-.375.947-.83.947"/>
</svg>
