<svg xmlns="http://www.w3.org/2000/svg" fill="none" viewBox="0 0 20 20">
  <path fill="#101112" fill-opacity=".8" fill-rule="evenodd" d="M10.004 1.667A8.33 8.33 0 0 0 1.671 10a8.33 8.33 0 0 0 5.698 7.906c.416.073.573-.177.573-.395 0-.198-.01-.855-.01-1.553-2.094.386-2.636-.51-2.803-.979-.094-.24-.5-.979-.854-1.177-.292-.156-.708-.541-.01-.552.656-.01 1.125.604 1.28.854.75 1.26 1.949.907 2.428.688.073-.542.292-.906.531-1.115-1.854-.208-3.791-.927-3.791-4.114 0-.907.322-1.657.854-2.24-.084-.208-.375-1.062.083-2.208 0 0 .698-.22 2.292.854a7.7 7.7 0 0 1 2.083-.281c.708 0 1.417.093 2.083.28 1.594-1.082 2.292-.853 2.292-.853.458 1.146.167 2 .083 2.208.532.583.855 1.323.855 2.24 0 3.198-1.948 3.906-3.802 4.114.302.26.562.76.562 1.542 0 1.114-.01 2.01-.01 2.292 0 .218.156.479.573.395A8.35 8.35 0 0 0 18.338 10a8.33 8.33 0 0 0-8.334-8.333" clip-rule="evenodd"/>
</svg>
