<svg xmlns="http://www.w3.org/2000/svg" fill="none" viewBox="0 0 20 20">
  <path fill="#101112" fill-opacity=".8" d="M10.008 18.333a8.333 8.333 0 1 0 0-16.666 8.333 8.333 0 0 0 0 16.666"/>
  <path fill="#fff" fill-rule="evenodd" d="M4.862 9.4q4.028-1.754 5.37-2.312c2.557-1.064 3.089-1.249 3.435-1.255a.6.6 0 0 1 .357.107.4.4 0 0 1 .131.25c.012.071.027.235.015.362-.138 1.456-.738 4.99-1.043 6.62-.129.69-.383.922-.63.944-.534.05-.94-.353-1.458-.692-.81-.532-1.268-.862-2.055-1.38-.909-.6-.32-.93.199-1.467.135-.141 2.491-2.284 2.537-2.479.005-.024.01-.114-.043-.162-.054-.048-.133-.032-.19-.019q-.123.028-3.885 2.567-.55.38-.998.37c-.33-.008-.962-.187-1.432-.34-.576-.187-1.035-.286-.995-.604q.032-.249.685-.51" clip-rule="evenodd"/>
</svg>
