<svg xmlns="http://www.w3.org/2000/svg" fill="none" viewBox="0 0 109 51">
  <g filter="url(#a)">
    <path fill="url(#b)" d="M81.934-34.137c1.318 2.266.713 5.455-1.515 7.975L38.265 21.523l-1.944-.383c-3.233-.637-5.639-2.669-6.594-5.568l-5.954-18.08c-1.178-3.574.004-7.977 3.1-11.55L41.479-30.92c3.096-3.573 7.635-5.773 11.907-5.772l23.66.009c2.157 0 3.95.935 4.887 2.545"/>
    <path fill="url(#c)" stroke="#fff" stroke-width="3.588" d="M87.133-3.07c1.729-1.996 2.389-4.455 1.73-6.452L82.3-29.454c-.657-1.997-2.533-3.227-4.919-3.228l-23.825-.009c-2.386 0-4.921 1.228-6.65 3.224L29.645-9.544c-1.73 1.996-2.39 4.455-1.732 6.451l6.565 19.933c.658 1.996 2.533 3.227 4.92 3.228l23.824.009c2.387 0 4.922-1.228 6.65-3.224z"/>
    <path fill="url(#d)" d="M87.078-8.656c.48 1.46-.002 3.26-1.266 4.719l-17.26 19.923c-1.265 1.46-3.12 2.359-4.865 2.358l-23.825-.009c-1.745 0-3.117-.9-3.598-2.36L29.7-3.959c-.48-1.46.002-3.26 1.267-4.719l17.26-19.924c1.264-1.46 3.119-2.358 4.864-2.357l23.825.009c1.746 0 3.117.9 3.598 2.36z"/>
    <path fill="#fff" fill-rule="evenodd" d="M70.62-7.578c.98 0 1.98-.766 2.234-1.713l.44-1.637c.254-.947-.335-1.715-1.315-1.715h-1.535c-.98 0-1.569-.769-1.315-1.716l.223-.83c.254-.947-.335-1.715-1.315-1.715l-15.772-.006c-.98 0-1.98.767-2.234 1.714l-.44 1.637c-.254.946.335 1.714 1.315 1.715l15.772.005c.98 0 1.569.769 1.315 1.716l-.223.83c-.254.947.334 1.714 1.315 1.715zM67.89 2.587c.98 0 1.981-.766 2.235-1.713l.44-1.637c.254-.947-.335-1.715-1.315-1.715h-1.535c-.98 0-1.98.766-2.235 1.713l-.175.654c-.254.947-1.255 1.714-2.235 1.714l-15.772-.006c-.98 0-1.98.767-2.235 1.713l-.439 1.637c-.254.947.335 1.715 1.315 1.715l15.771.006c.98 0 1.981-.767 2.236-1.714l.175-.653c.254-.947 1.255-1.714 2.235-1.714zm-8.355-5.139c.98 0 1.981-.767 2.235-1.714l.44-1.636c.254-.947-.335-1.715-1.315-1.715l-6.33-.003c-.98 0-1.98.767-2.234 1.714l-.44 1.637c-.254.947.335 1.714 1.316 1.715z" clip-rule="evenodd"/>
  </g>
  <defs>
    <linearGradient id="b" x1="76.963" x2="15.482" y1="-35.884" y2="-2.62" gradientUnits="userSpaceOnUse">
      <stop offset=".622" stop-color="#59B6E7"/>
      <stop offset="1" stop-color="#0783C5"/>
    </linearGradient>
    <linearGradient id="c" x1="87.855" x2="32.876" y1="-6.296" y2="-21.05" gradientUnits="userSpaceOnUse">
      <stop stop-color="#2C5282"/>
      <stop offset="1" stop-color="#153967"/>
    </linearGradient>
    <linearGradient id="d" x1="87.855" x2="32.876" y1="-6.296" y2="-21.05" gradientUnits="userSpaceOnUse">
      <stop stop-color="#008BE4"/>
      <stop offset="1" stop-color="#81C5F1"/>
    </linearGradient>
    <filter id="a" width="121.28" height="127.197" x="-6.11" y="-70.305" color-interpolation-filters="sRGB" filterUnits="userSpaceOnUse">
      <feFlood flood-opacity="0" result="BackgroundImageFix"/>
      <feBlend in="SourceGraphic" in2="BackgroundImageFix" result="shape"/>
      <feGaussianBlur result="effect1_foregroundBlur_638_37429" stdDeviation="3.236"/>
    </filter>
  </defs>
</svg>
