<svg xmlns="http://www.w3.org/2000/svg" fill="none" viewBox="0 0 308 96">
  <g filter="url(#a)">
    <path fill="url(#b)" d="M282.443 95.647c-4.474-7.815-14.997-11.494-26.317-9.2L41.886 129.86l-2.202 6.441c-3.66 10.708-1.753 21.352 5.23 29.176l43.53 48.773c8.607 9.644 23.731 13.696 39.676 10.631l75.238-14.463c15.945-3.065 30.287-12.783 37.624-25.491l40.631-70.374c3.704-6.416 4.008-13.352.83-18.906"/>
    <path fill="url(#c)" stroke="#fff" stroke-width="12.323" d="m221.16 32.734-5.644 3.824 5.644-3.824 47.992 53.773c4.807 5.386 5.244 13.077 1.146 20.175l-40.913 70.864c-4.098 7.098-12.108 12.525-21.013 14.237l-88.907 17.091c-8.905 1.712-17.352-.552-22.159-5.938l-47.993-53.773c-4.807-5.386-5.244-13.076-1.146-20.174l40.914-70.864c4.098-7.098 12.108-12.525 21.013-14.237L199 26.797c8.905-1.712 17.353.551 22.16 5.937Z"/>
    <path fill="url(#d)" d="M215.516 36.558c-3.516-3.94-9.694-5.595-16.208-4.343l-88.906 17.091c-6.513 1.252-12.372 5.222-15.37 10.413L54.12 130.583c-2.998 5.192-2.678 10.817.838 14.757l47.993 53.772c3.516 3.94 9.694 5.596 16.208 4.343l88.906-17.091c6.513-1.252 12.372-5.221 15.37-10.413l40.913-70.864c2.997-5.192 2.678-10.817-.838-14.756z"/>
    <path fill="#fff" fill-rule="evenodd" d="M184.029 83.647c1.684-2.916 5.685-4.573 8.937-3.702l5.622 1.507c3.252.871 4.524 3.941 2.84 6.857l-2.635 4.564c-1.683 2.916-.412 5.986 2.84 6.857l2.853.765c3.252.871 4.523 3.941 2.84 6.857l-27.084 46.91c-1.683 2.916-5.684 4.573-8.936 3.702l-5.622-1.507c-3.252-.871-4.524-3.941-2.841-6.857l27.084-46.91c1.683-2.916.412-5.986-2.84-6.857l-2.853-.764c-3.252-.872-4.523-3.942-2.84-6.858zm-34.915-9.356c1.683-2.915 5.684-4.573 8.936-3.701l5.623 1.506c3.252.871 4.523 3.941 2.84 6.857l-2.635 4.565c-1.684 2.916-5.685 4.573-8.937 3.701l-2.246-.601c-3.252-.872-7.253.786-8.936 3.701l-27.084 46.91c-1.683 2.916-5.684 4.573-8.936 3.702l-5.622-1.507c-3.252-.871-4.524-3.941-2.84-6.857l27.083-46.91c1.683-2.916 5.684-4.573 8.936-3.702l2.246.602c3.252.871 7.253-.786 8.937-3.701zm.926 33.678c1.683-2.916 5.684-4.573 8.936-3.702l5.622 1.507c3.252.871 4.524 3.941 2.841 6.857l-10.868 18.824c-1.684 2.915-5.685 4.573-8.937 3.701l-5.622-1.506c-3.252-.872-4.524-3.942-2.84-6.857z" clip-rule="evenodd"/>
  </g>
  <defs>
    <linearGradient id="b" x1="279.096" x2="74.532" y1="113.43" y2="239.098" gradientUnits="userSpaceOnUse">
      <stop offset=".622" stop-color="#59B6E7"/>
      <stop offset="1" stop-color="#0783C5"/>
    </linearGradient>
    <linearGradient id="c" x1="209.834" x2="159.233" y1="30.191" y2="219.037" gradientUnits="userSpaceOnUse">
      <stop stop-color="#2C5282"/>
      <stop offset="1" stop-color="#153967"/>
    </linearGradient>
    <linearGradient id="d" x1="209.834" x2="159.233" y1="30.191" y2="219.037" gradientUnits="userSpaceOnUse">
      <stop stop-color="#008BE4"/>
      <stop offset="1" stop-color="#81C5F1"/>
    </linearGradient>
    <filter id="a" width="347.588" height="291.986" x="-20" y="-16" color-interpolation-filters="sRGB" filterUnits="userSpaceOnUse">
      <feFlood flood-opacity="0" result="BackgroundImageFix"/>
      <feBlend in="SourceGraphic" in2="BackgroundImageFix" result="shape"/>
      <feGaussianBlur result="effect1_foregroundBlur_638_37420" stdDeviation="10"/>
    </filter>
  </defs>
</svg>
