<svg xmlns="http://www.w3.org/2000/svg" fill="none" viewBox="0 0 87 24">
  <path fill="#fff" d="M0 0h87v24H0z"/>
  <path fill="#0184D8" fill-rule="evenodd" d="M11.861.31a2.32 2.32 0 0 0-2.317 0L1.16 5.152A2.32 2.32 0 0 0 0 7.159v9.682c0 .828.442 1.593 1.159 2.007l8.385 4.842c.717.413 1.6.413 2.317 0l8.386-4.842a2.32 2.32 0 0 0 1.159-2.007V7.16c0-.828-.442-1.593-1.16-2.007zM9.005 6.304a.54.54 0 0 1 .537.543v1.287c0 .3-.24.543-.537.543H7.81a.54.54 0 0 0-.537.543v7.933c0 .3-.241.544-.538.544H5.462a.54.54 0 0 1-.538-.544V9.22c0-.3.24-.543.538-.543h1.193a.54.54 0 0 0 .538-.543V6.847c0-.3.24-.543.538-.543zm4.699 0a.54.54 0 0 1 .537.543v1.287c0 .3.241.543.538.543h1.194a.54.54 0 0 1 .537.543v7.933c0 .3-.24.544-.538.544h-1.274a.54.54 0 0 1-.537-.544V9.22a.54.54 0 0 0-.538-.543H12.43a.54.54 0 0 1-.538-.543V6.847c0-.3.24-.543.538-.543zm-2.35 4.543a.54.54 0 0 1 .538.543v3.525c0 .3-.24.544-.538.544H10.08a.54.54 0 0 1-.538-.544V11.39c0-.3.241-.543.538-.543z" clip-rule="evenodd"/>
  <path fill="url(#a)" d="M29.732 5.237h3.106l4.159 10.143h.164L41.32 5.237h3.105v13.998H41.99V9.618h-.13l-3.872 9.576H36.17l-3.871-9.596h-.13v9.637h-2.436z"/>
  <path fill="url(#b)" d="M51.73 19.44q-1.58 0-2.729-.656a4.45 4.45 0 0 1-1.758-1.873q-.615-1.217-.616-2.864 0-1.62.616-2.843.623-1.23 1.737-1.914 1.116-.69 2.62-.69.972 0 1.833.314.87.307 1.533.957.67.65 1.053 1.654.383.998.383 2.379v.758H47.79v-1.667h6.239a2.66 2.66 0 0 0-.308-1.265 2.24 2.24 0 0 0-.842-.882q-.532-.32-1.245-.32-.759 0-1.333.368-.575.362-.896.957-.315.588-.322 1.292V14.6q0 .915.335 1.572.336.649.937.998.602.342 1.41.342.54 0 .977-.15a2.2 2.2 0 0 0 .76-.459q.321-.3.485-.745l2.312.26a3.6 3.6 0 0 1-.834 1.6q-.609.675-1.56 1.052-.95.37-2.175.37"/>
  <path fill="url(#c)" d="M58.497 19.235V8.736h2.4v1.75h.11q.288-.909.985-1.401a2.7 2.7 0 0 1 1.608-.5q.204 0 .458.021.26.015.43.048v2.276a2.6 2.6 0 0 0-.499-.095 5 5 0 0 0-.65-.048q-.676 0-1.217.294a2.15 2.15 0 0 0-.841.8 2.25 2.25 0 0 0-.308 1.182v6.172z"/>
  <path fill="url(#d)" d="M66.134 19.235V8.736h2.476v10.499zm1.245-11.989q-.588 0-1.013-.39a1.26 1.26 0 0 1-.424-.95q0-.56.424-.95.424-.396 1.013-.396.594 0 1.012.396.424.39.424.95 0 .554-.424.95a1.43 1.43 0 0 1-1.012.39"/>
  <path fill="url(#e)" d="M76.403 8.736v1.914h-6.04V8.736zm-4.55-2.515h2.477v9.856q0 .5.15.766a.8.8 0 0 0 .41.355q.254.096.562.096.232 0 .424-.034.198-.035.3-.062l.418 1.935a6 6 0 0 1-.568.15 4.7 4.7 0 0 1-.889.095q-.93.028-1.676-.28a2.6 2.6 0 0 1-1.183-.97q-.431-.657-.424-1.64z"/>
  <path fill="url(#f)" d="m86.627 11.511-2.257.246a1.8 1.8 0 0 0-.336-.642 1.7 1.7 0 0 0-.629-.485q-.396-.185-.971-.185-.774 0-1.3.335-.52.335-.513.868a.9.9 0 0 0 .335.745q.35.287 1.15.472l1.791.383q1.492.32 2.217 1.018.732.697.738 1.825a2.85 2.85 0 0 1-.581 1.75q-.568.751-1.58 1.175t-2.326.424q-1.928 0-3.105-.806-1.176-.814-1.402-2.263l2.414-.232q.165.71.698 1.073.534.362 1.389.362.882 0 1.415-.362.54-.363.54-.896 0-.45-.348-.745-.342-.293-1.067-.45l-1.792-.377q-1.512-.314-2.237-1.06-.725-.75-.718-1.9-.008-.97.526-1.68.54-.719 1.499-1.108.963-.396 2.222-.396 1.847 0 2.908.786 1.066.786 1.32 2.125"/>
  <defs>
    <linearGradient id="a" x1="29" x2="87" y1="12" y2="12" gradientUnits="userSpaceOnUse">
      <stop stop-color="#0184D8"/>
      <stop offset="1" stop-color="#49AEEF"/>
    </linearGradient>
    <linearGradient id="b" x1="29" x2="87" y1="12" y2="12" gradientUnits="userSpaceOnUse">
      <stop stop-color="#0184D8"/>
      <stop offset="1" stop-color="#49AEEF"/>
    </linearGradient>
    <linearGradient id="c" x1="29" x2="87" y1="12" y2="12" gradientUnits="userSpaceOnUse">
      <stop stop-color="#0184D8"/>
      <stop offset="1" stop-color="#49AEEF"/>
    </linearGradient>
    <linearGradient id="d" x1="29" x2="87" y1="12" y2="12" gradientUnits="userSpaceOnUse">
      <stop stop-color="#0184D8"/>
      <stop offset="1" stop-color="#49AEEF"/>
    </linearGradient>
    <linearGradient id="e" x1="29" x2="87" y1="12" y2="12" gradientUnits="userSpaceOnUse">
      <stop stop-color="#0184D8"/>
      <stop offset="1" stop-color="#49AEEF"/>
    </linearGradient>
    <linearGradient id="f" x1="29" x2="87" y1="12" y2="12" gradientUnits="userSpaceOnUse">
      <stop stop-color="#0184D8"/>
      <stop offset="1" stop-color="#49AEEF"/>
    </linearGradient>
  </defs>
</svg>
