<svg xmlns="http://www.w3.org/2000/svg" fill="none" viewBox="0 0 452 120">
  <g filter="url(#a)" opacity=".6">
    <path fill="url(#b)" fill-rule="evenodd" d="M171.226 77.262c14.243-5.213 35.003.35 54.46 14.593l121.609 89.024c19.456 14.243 34.653 35.002 39.867 54.459l32.585 121.609c1.02 3.809 1.628 7.454 1.838 10.892.123 2.01 2.693 3.14 4.116 1.717a2.164 2.164 0 0 1 3.062 0l.981.98a3.55 3.55 0 0 1 0 5.023l-15.609 15.609h-.005c-2.435 2.44-5.437 4.351-8.976 5.646L316.13 429.4c-14.243 5.213-35.003-.349-54.46-14.592l-121.609-89.024c-19.456-14.243-34.653-35.003-39.867-54.46L67.609 149.715c-3.965-14.8-1.695-27.136 5.887-34.488l13.775-13.774a5.765 5.765 0 0 1 8.153 0 5.76 5.76 0 0 0 6.059 1.337z" clip-rule="evenodd"/>
    <path fill="#fff" d="M191.396 57.072c14.243-5.214 35.003.349 54.46 14.592l121.609 89.024c19.456 14.243 34.653 35.003 39.867 54.459l32.585 121.61c5.213 19.456-.35 34.653-14.593 39.867L336.3 409.209c-14.243 5.214-35.003-.349-54.46-14.592l-121.609-89.024c-19.456-14.243-34.654-35.003-39.867-54.459l-32.585-121.61c-5.213-19.456.35-34.653 14.593-39.867z"/>
    <path fill="url(#c)" d="M209.242 77.088c7.617-2.788 18.719.187 29.124 7.804L365.144 177.7c10.405 7.617 18.532 18.719 21.32 29.124l33.97 126.778c2.788 10.405-.187 18.532-7.804 21.32l-92.808 33.971c-7.617 2.788-18.719-.187-29.124-7.804L163.92 288.281c-10.405-7.617-18.532-18.719-21.32-29.124l-33.97-126.778c-2.788-10.405.186-18.532 7.803-21.32z"/>
    <path fill="#0080D2" d="M237.682 85.042c-10.405-7.617-21.507-10.591-29.124-7.803l-92.808 33.97c-3.442 1.26-5.936 3.61-7.379 6.767q.503-.229 1.036-.425l92.809-33.97c7.617-2.788 18.719.187 29.123 7.804l126.779 92.808c10.405 7.617 18.532 18.718 21.32 29.123l33.97 126.779c1.528 5.703 1.325 10.722-.425 14.553 6.846-3.127 9.425-10.976 6.767-20.896l-33.97-126.778c-2.788-10.405-10.915-21.507-21.32-29.124z"/>
  </g>
  <defs>
    <linearGradient id="b" x1="82.927" x2="391.895" y1="105.266" y2="414.235" gradientUnits="userSpaceOnUse">
      <stop stop-color="#D4C8F2"/>
      <stop offset=".079" stop-color="#C8B5F8"/>
      <stop offset=".295" stop-color="#C6B5F2"/>
      <stop offset=".345" stop-color="#E0D4FF"/>
      <stop offset=".756" stop-color="#B9BEEE"/>
      <stop offset=".837" stop-color="#C5DEFF"/>
      <stop offset="1" stop-color="#D2E4FF"/>
    </linearGradient>
    <linearGradient id="c" x1="221.551" x2="147.106" y1="72.582" y2="350.417" gradientUnits="userSpaceOnUse">
      <stop stop-color="#0085DA"/>
      <stop offset=".83" stop-color="#8BD1FF"/>
      <stop offset="1" stop-color="#B9E3FF"/>
    </linearGradient>
    <filter id="a" width="424.152" height="424.173" x="41.688" y="31.149" color-interpolation-filters="sRGB" filterUnits="userSpaceOnUse">
      <feFlood flood-opacity="0" result="BackgroundImageFix"/>
      <feBlend in="SourceGraphic" in2="BackgroundImageFix" result="shape"/>
      <feGaussianBlur result="effect1_foregroundBlur_1121_66325" stdDeviation="12"/>
    </filter>
  </defs>
</svg>
