<svg xmlns="http://www.w3.org/2000/svg" fill="none" viewBox="0 0 147 59">
  <g filter="url(#a)">
    <path fill="url(#b)" fill-rule="evenodd" d="M40.334-47.962c3.578-2.347 9.64-2.152 15.9.512l39.13 16.65c6.26 2.664 11.769 7.392 14.451 12.403l16.762 31.32c.525.98.926 1.943 1.205 2.874.162.544.94.69 1.24.207a.61.61 0 0 1 .84-.196l.333.206c.47.292.615.91.323 1.38l-3.271 5.266a6.9 6.9 0 0 1-2.119 2.153l-22.367 14.67c-3.579 2.348-9.64 2.152-15.9-.511l-39.13-16.65c-6.26-2.664-11.769-7.392-14.45-12.403l-16.763-31.32c-2.047-3.825-2.21-7.372-.58-9.88l2.883-4.643a1.627 1.627 0 0 1 2.24-.524c.538.334 1.221.326 1.75-.021z" clip-rule="evenodd"/>
    <path fill="#fff" d="M44.578-54.805c3.579-2.347 9.64-2.152 15.9.512l39.13 16.65c6.26 2.664 11.769 7.392 14.451 12.403l16.762 31.32c2.682 5.01 2.13 9.543-1.449 11.89l-22.367 14.67c-3.578 2.347-9.64 2.152-15.9-.512l-39.13-16.65c-6.26-2.663-11.769-7.391-14.45-12.402l-16.763-31.32c-2.682-5.011-2.13-9.544 1.449-11.89z"/>
    <path fill="url(#c)" d="M50.768-50.452c1.913-1.255 5.154-1.15 8.502.274l40.793 17.358c3.348 1.424 6.294 3.953 7.728 6.633l17.475 32.65c1.435 2.68 1.139 5.105-.774 6.36l-23.318 15.293c-1.914 1.256-5.155 1.151-8.503-.273L51.878 10.485C48.53 9.06 45.584 6.532 44.15 3.852L26.675-28.799c-1.434-2.68-1.14-5.104.775-6.359z"/>
    <path fill="#0080D2" d="M59.093-50.093c-3.348-1.424-6.59-1.529-8.503-.273L27.272-35.073c-.865.567-1.4 1.373-1.593 2.333q.123-.095.258-.183l23.317-15.294c1.914-1.255 5.156-1.15 8.503.274L98.55-30.585c3.348 1.424 6.294 3.953 7.728 6.633l17.475 32.65c.787 1.47 1.053 2.862.818 4.027 1.68-1.3 1.885-3.621.518-6.176l-17.475-32.651c-1.435-2.68-4.38-5.209-7.728-6.633z"/>
    <g fill="#0080D2" opacity=".5">
      <path fill-rule="evenodd" d="M64.663-27.247c-.71-1.328-2.506-2.443-4.01-2.491l-2.602-.084c-.821-.027-1.386.27-1.614.76l-1.58 2.542a1 1 0 0 0-.134.215l-.004.006h.001c-.19.41-.148.953.175 1.557l.863 1.613-.792-.026c-.796-.025-1.35.252-1.592.716l-1.627 2.62c-.309.422-.312 1.042.064 1.744L63.24 3.283c.71 1.327 2.507 2.442 4.012 2.49l2.601.085c.88.028 1.467-.315 1.659-.871l.017.01 1.515-2.438c.337-.422.351-1.059-.036-1.781L61.828-20.114l.792.025c.834.027 1.403-.279 1.624-.783l1.55-2.494c.353-.422.375-1.068-.019-1.803zm6.413 30.324h-.032l.015.028z" clip-rule="evenodd"/>
      <path d="M80.82-26.727c-.71-1.328-2.506-2.443-4.011-2.491l-2.602-.084c-.801-.026-1.358.256-1.597.726l-1.614 2.598c-.317.422-.323 1.048.056 1.756l1.112 2.078c.71 1.328 2.507 2.443 4.011 2.491l1.04.034c1.505.048 3.3 1.164 4.011 2.491L92.656 4.23c.71 1.328 2.507 2.443 4.012 2.492l2.601.084c.752.024 1.289-.223 1.549-.641h.002l1.717-2.764h-.002c.261-.42.245-1.011-.111-1.675l-11.43-21.358c-.71-1.327-2.507-2.443-4.011-2.491l-1.04-.034c-1.504-.048-3.3-1.163-4.01-2.491z"/>
      <path d="M79.711-13.809c-.71-1.328-2.506-2.443-4.01-2.491l-2.602-.084c-.708-.023-1.225.194-1.5.569l-.003-.002-.024.038-.046.074-1.647 2.653h.002c-.31.423-.314 1.045.062 1.748l4.587 8.57c.71 1.328 2.507 2.443 4.011 2.491l2.602.084c.768.025 1.312-.233 1.566-.669l1.684-2.71c.278-.421.268-1.023-.095-1.7z"/>
    </g>
    <path fill="#fff" fill-rule="evenodd" d="M64.663-27.247c-.71-1.328-2.506-2.443-4.01-2.491l-2.602-.084c-1.505-.049-2.15.988-1.439 2.316l1.112 2.078c.71 1.327.067 2.364-1.438 2.316l-1.32-.043c-1.505-.048-2.149.989-1.438 2.316L64.958.518c.71 1.328 2.507 2.443 4.011 2.492l2.602.083c1.505.049 2.149-.988 1.438-2.315L61.58-20.58c-.71-1.327-.067-2.364 1.438-2.316l1.32.043c1.505.048 2.149-.988 1.438-2.316zm16.157.52c-.71-1.328-2.506-2.443-4.011-2.491l-2.602-.084c-1.505-.049-2.149.988-1.438 2.316l1.112 2.078c.71 1.327 2.506 2.443 4.011 2.491l1.04.034c1.504.048 3.3 1.164 4.01 2.491L94.374 1.465c.71 1.328 2.507 2.443 4.011 2.492l2.602.083c1.505.049 2.149-.988 1.438-2.315l-11.43-21.358c-.71-1.327-2.507-2.443-4.011-2.491l-1.04-.034c-1.504-.048-3.3-1.163-4.01-2.491zm-1.109 12.918c-.71-1.328-2.506-2.443-4.01-2.491l-2.602-.084c-1.505-.049-2.15.988-1.439 2.316l4.587 8.57c.71 1.327 2.506 2.443 4.011 2.491l2.602.084c1.505.048 2.149-.988 1.438-2.316z" clip-rule="evenodd"/>
  </g>
  <defs>
    <linearGradient id="b" x1="17.872" x2="122.603" y1="-34.597" y2="30.45" gradientUnits="userSpaceOnUse">
      <stop stop-color="#D4C8F2"/>
      <stop offset=".079" stop-color="#C8B5F8"/>
      <stop offset=".295" stop-color="#C6B5F2"/>
      <stop offset=".345" stop-color="#E0D4FF"/>
      <stop offset=".756" stop-color="#B9BEEE"/>
      <stop offset=".837" stop-color="#C5DEFF"/>
      <stop offset="1" stop-color="#D2E4FF"/>
    </linearGradient>
    <linearGradient id="c" x1="53.86" x2="51.248" y1="-52.48" y2="28.637" gradientUnits="userSpaceOnUse">
      <stop stop-color="#0085DA"/>
      <stop offset=".83" stop-color="#8BD1FF"/>
      <stop offset="1" stop-color="#B9E3FF"/>
    </linearGradient>
    <filter id="a" width="138.102" height="117.985" x="4.618" y="-66.653" color-interpolation-filters="sRGB" filterUnits="userSpaceOnUse">
      <feFlood flood-opacity="0" result="BackgroundImageFix"/>
      <feBlend in="SourceGraphic" in2="BackgroundImageFix" result="shape"/>
      <feGaussianBlur result="effect1_foregroundBlur_1121_66305" stdDeviation="5.108"/>
    </filter>
  </defs>
</svg>
