<svg xmlns="http://www.w3.org/2000/svg" fill="none" viewBox="0 0 191 120">
  <path fill="url(#a)" d="M66.559-10.447c4.285-.874 9.002 1.786 11.794 6.651L131.2 88.285l-1.644 2.868c-2.732 4.77-7.227 7.486-12.32 7.447l-31.75-.245c-6.279-.048-12.606-4.267-16.6-11.067L50.042 55.202c-3.994-6.8-5.047-15.148-2.763-21.9L59.928-4.082c1.153-3.408 3.586-5.743 6.63-6.364"/>
  <path fill="url(#b)" stroke="#fff" stroke-width="5.985" d="M118.433-2.077c-2.231-3.797-5.765-6.153-9.271-6.18l-35.005-.27c-3.506-.027-6.452 2.28-7.728 6.05L53.693 35.169c-1.276 3.77-.688 8.433 1.543 12.23l22.268 37.916c2.23 3.798 5.764 6.154 9.27 6.181l35.005.27c3.507.027 6.452-2.28 7.728-6.05l12.737-37.646c1.276-3.77.687-8.433-1.543-12.231z"/>
  <path fill="url(#c)" d="M109.576-4.973c2.565.02 5.15 1.744 6.781 4.521l22.269 37.916c1.631 2.778 2.061 6.188 1.128 8.946l-12.737 37.646c-.933 2.758-3.087 4.445-5.652 4.425l-35.005-.27c-2.564-.02-5.15-1.743-6.78-4.52L57.31 45.775c-1.632-2.778-2.062-6.188-1.129-8.946L68.92-.817c.933-2.758 3.088-4.445 5.652-4.425z"/>
  <path fill="#fff" fill-rule="evenodd" d="M102.491 21.613c.525-1.549-.154-3.54-1.514-4.447l-2.352-1.568c-1.36-.907-2.889-.387-3.413 1.162l-.82 2.425c-.524 1.549-2.052 2.07-3.412 1.162l-1.194-.796c-1.36-.907-2.888-.386-3.412 1.163l-8.431 24.92c-.524 1.55.154 3.54 1.514 4.447l2.352 1.569c1.36.907 2.889.386 3.413-1.163l8.431-24.92c.524-1.549 2.052-2.07 3.412-1.162l1.194.795c1.36.907 2.888.387 3.412-1.162zm14.608 9.74c.524-1.55-.154-3.54-1.515-4.448l-2.352-1.568c-1.361-.907-2.888-.387-3.412 1.162l-.821 2.425c-.524 1.549.154 3.54 1.515 4.447l.939.627c1.361.907 2.039 2.898 1.515 4.447l-8.431 24.92c-.524 1.55.154 3.54 1.514 4.447l2.352 1.568c1.361.907 2.889.387 3.413-1.162l8.431-24.92c.524-1.55-.154-3.54-1.514-4.448l-.94-.626c-1.361-.907-2.039-2.898-1.515-4.447zm-12.584 10.459c.524-1.55-.154-3.54-1.514-4.447l-2.353-1.569c-1.36-.907-2.888-.386-3.412 1.163l-3.383 10c-.524 1.548.154 3.54 1.514 4.447l2.352 1.568c1.361.907 2.889.387 3.413-1.162z" clip-rule="evenodd"/>
  <defs>
    <linearGradient id="a" x1="61.144" x2="80.88" y1="-3.525" y2="111.397" gradientUnits="userSpaceOnUse">
      <stop offset=".622" stop-color="#59B6E7"/>
      <stop offset="1" stop-color="#0783C5"/>
    </linearGradient>
    <linearGradient id="b" x1="113.721" x2="61.046" y1="-4.941" y2="74.065" gradientUnits="userSpaceOnUse">
      <stop stop-color="#2C5282"/>
      <stop offset="1" stop-color="#153967"/>
    </linearGradient>
    <linearGradient id="c" x1="113.721" x2="61.046" y1="-4.941" y2="74.065" gradientUnits="userSpaceOnUse">
      <stop stop-color="#008BE4"/>
      <stop offset="1" stop-color="#81C5F1"/>
    </linearGradient>
  </defs>
</svg>
