<svg xmlns="http://www.w3.org/2000/svg" fill="none" viewBox="0 0 222 120">
  <path fill="url(#a)" fill-rule="evenodd" d="M146.844-13.198c-6.206-2.271-15.251.152-23.728 6.358L70.129 31.95C61.652 38.154 55.03 47.2 52.76 55.677L38.56 108.664c-.444 1.659-.71 3.247-.8 4.746-.055.875-1.175 1.368-1.795.748a.943.943 0 0 0-1.334 0l-.427.427a1.547 1.547 0 0 0 0 2.188l6.8 6.801h.002c1.062 1.063 2.37 1.896 3.912 2.461l38.79 14.198c6.205 2.271 15.25-.153 23.728-6.358l52.986-38.79c8.478-6.205 15.099-15.25 17.371-23.728l14.197-52.986c1.726-6.442.741-11.813-2.555-15.017l-6.011-6.012a2.51 2.51 0 0 0-3.553 0 2.51 2.51 0 0 1-2.64.583z" clip-rule="evenodd"/>
  <path fill="#fff" d="M138.055-21.995c-6.206-2.271-15.251.152-23.728 6.358L61.34 23.153c-8.477 6.205-15.099 15.25-17.37 23.728L29.772 99.867c-2.271 8.478.152 15.099 6.358 17.371l38.789 14.198c6.206 2.271 15.251-.153 23.729-6.358l52.986-38.79c8.477-6.205 15.099-15.25 17.371-23.728l14.197-52.986c2.272-8.478-.152-15.1-6.358-17.37z"/>
  <path fill="url(#b)" d="M130.28-13.273c-3.319-1.215-8.156.081-12.69 3.4L62.352 30.565c-4.534 3.318-8.075 8.156-9.29 12.69l-14.8 55.238c-1.215 4.533.08 8.075 3.4 9.289l40.437 14.802c3.319 1.214 8.156-.082 12.69-3.401l55.238-40.437c4.534-3.319 8.075-8.156 9.29-12.69l14.801-55.238c1.215-4.534-.082-8.075-3.4-9.29z"/>
  <path fill="#0080D2" d="M117.889-9.808c4.534-3.318 9.371-4.614 12.69-3.4l40.437 14.802c1.5.549 2.587 1.573 3.215 2.948a6 6 0 0 0-.451-.185l-40.438-14.801c-3.318-1.215-8.156.081-12.689 3.4L65.414 33.394c-4.534 3.318-8.075 8.156-9.29 12.689l-14.8 55.239c-.666 2.485-.578 4.672.185 6.341-2.983-1.363-4.107-4.783-2.949-9.105L53.361 43.32c1.215-4.533 4.756-9.37 9.29-12.689z"/>
  <g fill="#0080D2" opacity=".5">
    <path fill-rule="evenodd" d="M117.54 26.503c.602-2.246 2.91-4.554 5.156-5.156l3.882-1.04c1.225-.328 2.178-.081 2.694.575h.001l3.269 3.268q.154.123.276.276l.008.008-.001.001c.431.548.557 1.38.283 2.402l-.731 2.728 1.183-.317c1.187-.318 2.119-.095 2.645.517l3.368 3.368c.612.526.835 1.458.517 2.645l-9.682 36.132c-.601 2.246-2.91 4.554-5.156 5.156l-3.882 1.04c-1.315.353-2.316.042-2.8-.726l-.023.022-3.134-3.134c-.655-.516-.901-1.468-.573-2.691l9.47-35.345-1.182.317c-1.244.333-2.207.073-2.717-.606l-3.207-3.207c-.679-.51-.939-1.474-.606-2.717zm1.015 47.853.049-.013-.013.048z" clip-rule="evenodd"/>
    <path d="M93.428 32.964c.602-2.246 2.91-4.554 5.156-5.156l3.883-1.04c1.196-.32 2.133-.093 2.657.53l3.339 3.34c.625.522.855 1.461.534 2.66l-.942 3.515c-.602 2.246-2.911 4.554-5.156 5.156l-1.551.416c-2.246.602-4.554 2.91-5.156 5.156L86.51 83.673c-.601 2.245-2.91 4.554-5.156 5.156l-3.882 1.04c-1.122.3-2.016.118-2.555-.42l-.002.002-3.553-3.552.002-.002c-.54-.54-.723-1.434-.422-2.558l9.682-36.132c.601-2.246 2.91-4.554 5.156-5.156l1.55-.416c2.246-.601 4.555-2.91 5.156-5.156z"/>
    <path d="M99.636 51.999c.601-2.246 2.91-4.555 5.155-5.156l3.883-1.04c1.056-.283 1.91-.139 2.456.327l.003-.003.049.05.046.043.049.052 3.409 3.409-.003.003c.615.525.84 1.458.521 2.648l-3.885 14.5c-.602 2.245-2.91 4.553-5.156 5.155l-3.882 1.04c-1.147.308-2.056.11-2.59-.455l-3.485-3.484c-.566-.535-.763-1.444-.455-2.59z"/>
  </g>
  <path fill="#fff" fill-rule="evenodd" d="M117.54 26.504c.602-2.246 2.91-4.555 5.156-5.157l3.883-1.04c2.245-.602 3.578.731 2.976 2.977l-.942 3.516c-.601 2.245.731 3.578 2.977 2.976l1.97-.527c2.246-.602 3.578.73 2.977 2.976l-9.682 36.132c-.602 2.246-2.91 4.555-5.156 5.156l-3.882 1.04c-2.246.602-3.579-.73-2.977-2.976l9.681-36.132c.602-2.246-.731-3.578-2.976-2.977l-1.97.528c-2.246.602-3.579-.73-2.977-2.977zm-24.112 6.46c.602-2.246 2.91-4.554 5.156-5.156l3.883-1.04c2.246-.602 3.578.73 2.977 2.977l-.942 3.515c-.602 2.246-2.911 4.555-5.156 5.156l-1.551.416c-2.246.602-4.555 2.91-5.156 5.156L82.957 80.12c-.601 2.245-2.91 4.554-5.156 5.156l-3.882 1.04c-2.246.602-3.579-.731-2.977-2.977l9.682-36.132c.601-2.246 2.91-4.554 5.156-5.156l1.55-.415c2.246-.602 4.555-2.91 5.156-5.156zM99.635 52c.602-2.246 2.911-4.554 5.157-5.156l3.882-1.04c2.246-.602 3.579.73 2.977 2.977l-3.885 14.498c-.602 2.246-2.91 4.554-5.156 5.156l-3.883 1.04c-2.245.602-3.578-.73-2.976-2.976z" clip-rule="evenodd"/>
  <defs>
    <linearGradient id="a" x1="185.317" x2="50.696" y1="-.996" y2="133.625" gradientUnits="userSpaceOnUse">
      <stop stop-color="#D4C8F2"/>
      <stop offset=".079" stop-color="#C8B5F8"/>
      <stop offset=".295" stop-color="#C6B5F2"/>
      <stop offset=".345" stop-color="#E0D4FF"/>
      <stop offset=".756" stop-color="#B9BEEE"/>
      <stop offset=".837" stop-color="#C5DEFF"/>
      <stop offset="1" stop-color="#D2E4FF"/>
    </linearGradient>
    <linearGradient id="b" x1="124.917" x2="157.353" y1="-15.236" y2="105.819" gradientUnits="userSpaceOnUse">
      <stop stop-color="#0085DA"/>
      <stop offset=".83" stop-color="#8BD1FF"/>
      <stop offset="1" stop-color="#B9E3FF"/>
    </linearGradient>
  </defs>
</svg>
